#tb 0: 1/100
#media_type 0: subtitle
#codec_id 0: subrip
0,          0,          0,       10,        1, 0x00610061
0,         10,         10,       10,        1, 0x00620062
0,         20,         20,       80,        1, 0x00630063
0,        100,        100,       10,        1, 0x00640064
0,        110,        110,       10,        1, 0x00650065
